<svg width="137" height="32" viewBox="0 0 137 32" fill="none" xmlns="http://www.w3.org/2000/svg">
<g opacity="0.6">
<path d="M33.5872 7.63477H36.7402V22.9518H33.5872V7.63477Z" fill="#1D2130"/>
<path d="M38.5058 17.7048C38.5058 16.6027 38.8303 15.5256 39.438 14.6097C40.0457 13.6939 40.9093 12.9806 41.9193 12.5604C42.9294 12.1401 44.0405 12.0318 45.1116 12.2491C46.1828 12.4664 47.1659 12.9996 47.9363 13.7811C48.7067 14.5625 49.2297 15.5571 49.439 16.6387C49.6484 17.7203 49.5346 18.8402 49.1121 19.8565C48.6897 20.8728 47.9776 21.7397 47.066 22.3474C46.1545 22.955 45.0846 23.2761 43.992 23.2698C43.2673 23.2755 42.5488 23.1352 41.8785 22.8571C41.2083 22.5791 40.5998 22.1689 40.0889 21.6506C39.5779 21.1322 39.1747 20.5162 38.9028 19.8387C38.631 19.1611 38.496 18.4356 38.5058 17.7048ZM46.4093 17.7048C46.3969 17.2297 46.2459 16.7688 45.9752 16.3798C45.7044 15.9908 45.326 15.691 44.8872 15.5178C44.4484 15.3446 43.9687 15.3057 43.5081 15.406C43.0475 15.5063 42.6264 15.7414 42.2976 16.0817C41.9687 16.4221 41.7467 16.8528 41.6592 17.3198C41.5718 17.7868 41.6228 18.2694 41.8058 18.7073C41.9889 19.1452 42.2959 19.519 42.6885 19.7818C43.0811 20.0447 43.5418 20.185 44.013 20.1852C44.3339 20.1915 44.6525 20.131 44.9491 20.0074C45.2457 19.8839 45.5138 19.7 45.7368 19.4672C45.9597 19.2344 46.1326 18.9577 46.2447 18.6545C46.3568 18.3512 46.4057 18.0279 46.3883 17.7048H46.4093Z" fill="#1D2130"/>
<path d="M61.9535 12.4578V22.4324C61.9535 25.9516 59.2209 27.4462 56.4568 27.4462C55.4818 27.5269 54.5039 27.3315 53.6331 26.882C52.7622 26.4326 52.0331 25.7469 51.5277 24.9022L54.1867 23.3546C54.4021 23.7927 54.7449 24.1542 55.1692 24.3909C55.5936 24.6277 56.0794 24.7283 56.5619 24.6796C56.8693 24.7178 57.1812 24.687 57.4755 24.5894C57.7697 24.4918 58.0389 24.3299 58.2638 24.1152C58.4888 23.9005 58.6639 23.6383 58.7766 23.3474C58.8894 23.0565 58.937 22.744 58.9161 22.4324V21.4678C58.5492 21.9164 58.0837 22.2727 57.5564 22.5082C57.0292 22.7437 56.4548 22.852 55.8788 22.8246C54.4851 22.8246 53.1484 22.2662 52.1629 21.2722C51.1774 20.2783 50.6238 18.9302 50.6238 17.5246C50.6238 16.1189 51.1774 14.7708 52.1629 13.7769C53.1484 12.783 54.4851 12.2246 55.8788 12.2246C56.4548 12.1971 57.0292 12.3054 57.5564 12.5409C58.0837 12.7765 58.5492 13.1327 58.9161 13.5814V12.5214L61.9535 12.4578ZM58.9161 17.4928C58.9371 16.9856 58.8072 16.4838 58.5431 16.0517C58.279 15.6196 57.8927 15.2771 57.4341 15.0682C56.9754 14.8593 56.4653 14.7936 55.9693 14.8794C55.4732 14.9653 55.014 15.1988 54.6507 15.55C54.2873 15.9012 54.0365 16.354 53.9303 16.8502C53.8242 17.3463 53.8676 17.8632 54.055 18.3342C54.2424 18.8053 54.5653 19.209 54.9821 19.4935C55.3989 19.7781 55.8905 19.9303 56.3937 19.9308C56.7221 19.9546 57.0518 19.9087 57.3616 19.7961C57.6713 19.6835 57.9541 19.5065 58.1918 19.2768C58.4295 19.047 58.6168 18.7695 58.7416 18.4622C58.8663 18.1549 58.9258 17.8247 58.9161 17.4928Z" fill="#1D2130"/>
<path d="M63.7296 17.7048C63.7296 16.6036 64.0535 15.5273 64.6603 14.6119C65.267 13.6965 66.1294 12.9832 67.1382 12.5624C68.1471 12.1415 69.2571 12.0319 70.3277 12.2475C71.3983 12.4631 72.3814 12.9941 73.1527 13.7735C73.9239 14.5528 74.4486 15.5454 74.6603 16.6256C74.872 17.7058 74.7613 18.8251 74.342 19.8417C73.9228 20.8584 73.2139 21.7268 72.3052 22.337C71.3964 22.9473 70.3286 23.2719 69.2368 23.2698C68.5108 23.2769 67.7906 23.1377 67.1186 22.8604C66.4465 22.5831 65.8362 22.1733 65.3232 21.655C64.8103 21.1367 64.4051 20.5203 64.1315 19.8419C63.8578 19.1636 63.7212 18.437 63.7296 17.7048ZM71.6331 17.7048C71.6207 17.2292 71.4694 16.7679 71.1982 16.3787C70.927 15.9895 70.5479 15.6897 70.1085 15.5168C69.6691 15.3439 69.1889 15.3057 68.728 15.4069C68.2672 15.508 67.8461 15.7441 67.5177 16.0856C67.1893 16.427 66.9681 16.8586 66.8818 17.3263C66.7956 17.794 66.8481 18.2769 67.0327 18.7147C67.2174 19.1524 67.5261 19.5254 67.92 19.787C68.314 20.0486 68.7757 20.1871 69.2473 20.1852C69.5682 20.1915 69.8868 20.131 70.1834 20.0074C70.48 19.8839 70.7482 19.7 70.9711 19.4672C71.194 19.2344 71.3669 18.9577 71.479 18.6545C71.5911 18.3512 71.64 18.0279 71.6226 17.7048H71.6331Z" fill="#1D2130"/>
<path d="M76.205 9.64871C76.205 9.27554 76.3147 8.91074 76.5202 8.60046C76.7258 8.29018 77.018 8.04834 77.3598 7.90553C77.7017 7.76273 78.0778 7.72536 78.4407 7.79816C78.8036 7.87097 79.1369 8.05067 79.3986 8.31454C79.6602 8.57842 79.8384 8.91461 79.9105 9.28061C79.9827 9.64662 79.9457 10.026 79.8041 10.3708C79.6625 10.7155 79.4227 11.0102 79.1151 11.2175C78.8074 11.4249 78.4457 11.5355 78.0757 11.5355C77.5813 11.53 77.1086 11.3294 76.7589 10.9768C76.4093 10.6241 76.2104 10.1474 76.205 9.64871ZM76.5098 12.4577H79.6627V22.9517H76.5098V12.4577Z" fill="#1D2130"/>
<path d="M93.1574 17.7048C93.1928 18.4027 93.0909 19.1008 92.8577 19.7588C92.6245 20.4169 92.2646 21.0219 91.7987 21.5391C91.3327 22.0564 90.77 22.4755 90.1428 22.7726C89.5156 23.0696 88.8364 23.2386 88.1442 23.2698C87.5568 23.3092 86.9682 23.2143 86.4222 22.9922C85.8763 22.7702 85.3871 22.4266 84.9912 21.9872V27.1706H81.8382V12.4578H84.9912V13.4436C85.3876 13.0055 85.8772 12.6635 86.4232 12.4432C86.9692 12.2229 87.5576 12.1301 88.1442 12.1716C88.8336 12.2029 89.5101 12.3709 90.1352 12.6659C90.7602 12.9609 91.3215 13.3772 91.7871 13.891C92.2526 14.4048 92.6132 15.0061 92.8483 15.6604C93.0835 16.3148 93.1885 17.0095 93.1574 17.7048ZM90.0044 17.7048C89.992 17.2125 89.8358 16.7348 89.5554 16.3317C89.2749 15.9285 88.8827 15.6178 88.428 15.4385C87.9732 15.2592 87.476 15.2193 86.9988 15.3237C86.5217 15.4282 86.0857 15.6724 85.7455 16.0257C85.4053 16.379 85.1761 16.8257 85.0866 17.3098C84.9971 17.7939 85.0512 18.294 85.2423 18.7472C85.4333 19.2004 85.7528 19.5867 86.1606 19.8575C86.5683 20.1284 87.0463 20.2719 87.5346 20.27C87.8691 20.2843 88.2027 20.2272 88.5138 20.1023C88.8248 19.9774 89.1061 19.7877 89.3393 19.5455C89.5725 19.3032 89.7524 19.014 89.867 18.6968C89.9816 18.3796 90.0285 18.0415 90.0044 17.7048Z" fill="#1D2130"/>
<path d="M102.753 19.8035C102.753 22.2203 100.651 23.2485 98.4229 23.2485C97.5141 23.331 96.6017 23.1368 95.8036 22.6908C95.0054 22.2449 94.3583 21.5677 93.9457 20.7469L96.6572 19.1993C96.7646 19.5776 96.9976 19.9071 97.3171 20.1329C97.6366 20.3586 98.0232 20.4669 98.4124 20.4395C99.1586 20.4395 99.5369 20.2063 99.5369 19.7823C99.5369 18.6269 94.4186 19.2417 94.4186 15.6059C94.4186 13.3163 96.3314 12.1715 98.4965 12.1715C99.3194 12.1344 100.137 12.3227 100.862 12.7165C101.588 13.1103 102.194 13.6949 102.616 14.4081L99.9048 15.8497C99.785 15.5763 99.5893 15.3437 99.3412 15.18C99.0931 15.0164 98.8034 14.9287 98.507 14.9275C97.9604 14.9275 97.6347 15.1395 97.6347 15.5105C97.6347 16.7189 102.753 15.9239 102.753 19.8035Z" fill="#1D2130"/>
<path d="M114.177 12.4578V22.9518H111.024V21.966C110.666 22.4024 110.211 22.7477 109.696 22.9742C109.182 23.2006 108.621 23.3019 108.06 23.2698C105.958 23.2698 104.161 21.754 104.161 18.9238V12.4578H107.314V18.4468C107.289 18.6972 107.319 18.95 107.4 19.1878C107.482 19.4256 107.614 19.6427 107.787 19.8241C107.959 20.0056 108.169 20.147 108.402 20.2386C108.634 20.3302 108.883 20.3699 109.132 20.3548C110.268 20.3548 111.066 19.6764 111.066 18.2348V12.4578H114.177Z" fill="#1D2130"/>
<path d="M132.044 16.5069V22.9517H128.891V16.7825C128.891 15.7225 128.397 15.0653 127.399 15.0653C126.4 15.0653 125.77 15.7967 125.77 17.0369V22.9517H122.617V16.7825C122.617 15.7225 122.123 15.0653 121.124 15.0653C120.126 15.0653 119.495 15.7967 119.495 17.0369V22.9517H116.342V12.4577H119.495V13.4223C119.822 12.9962 120.248 12.6587 120.736 12.4403C121.224 12.222 121.759 12.1296 122.291 12.1715C122.824 12.1435 123.355 12.2558 123.833 12.4974C124.31 12.7389 124.717 13.1015 125.013 13.5495C125.359 13.0815 125.818 12.7096 126.345 12.4686C126.873 12.2276 127.452 12.1254 128.029 12.1715C130.489 12.1715 132.044 13.8887 132.044 16.5069Z" fill="#1D2130"/>
<path d="M14.806 4.87878V0.373779H0.722656V31.3258H14.806V26.8208C11.921 26.8208 9.15419 25.6649 7.11421 23.6074C5.07423 21.55 3.92818 18.7595 3.92818 15.8498C3.92818 12.9401 5.07423 10.1496 7.11421 8.09211C9.15419 6.03465 11.921 4.87878 14.806 4.87878Z" fill="#1D2130"/>
<path d="M14.806 4.87878V26.8208C17.6909 26.8208 20.4576 25.6649 22.4976 23.6074C24.5376 21.55 25.6837 18.7595 25.6837 15.8498C25.6837 12.9401 24.5376 10.1496 22.4976 8.09211C20.4576 6.03465 17.6909 4.87878 14.806 4.87878Z" fill="#1D2130"/>
<path d="M134.693 12.3942C135.97 12.3942 137.005 11.3501 137.005 10.0622C137.005 8.77422 135.97 7.73015 134.693 7.73015C133.416 7.73015 132.38 8.77422 132.38 10.0622C132.38 11.3501 133.416 12.3942 134.693 12.3942Z" fill="#1D2130"/>
</g>
</svg>
