<svg width="142" height="29" viewBox="0 0 142 29" fill="none" xmlns="http://www.w3.org/2000/svg">
<g opacity="0.6">
<path d="M21.2724 13.1382C20.8762 13.5386 20.5728 14.0218 20.3838 14.5533C20.1948 15.0849 20.1249 15.6518 20.1789 16.2137L20.1601 16.1948C20.2157 16.8561 20.1269 17.5217 19.9 18.145C19.673 18.7683 19.3134 19.3344 18.8461 19.8037C18.3789 20.273 17.8153 20.6342 17.1947 20.8622C16.5741 21.0901 15.9115 21.1793 15.2531 21.1235L15.2719 21.1424C14.4843 21.0688 13.6932 21.2409 13.0066 21.6354C12.3199 22.0299 11.7711 22.6274 11.435 23.3467C11.0989 24.0659 10.9918 24.8717 11.1284 25.6543C11.2649 26.4369 11.6384 27.1581 12.198 27.7197C12.7576 28.2812 13.476 28.6558 14.2553 28.7922C15.0346 28.9286 15.8368 28.8203 16.5525 28.4821C17.2683 28.1438 17.8627 27.5921 18.2548 26.902C18.6469 26.212 18.8176 25.4173 18.7436 24.6263L18.7635 24.6452C18.7079 23.9838 18.7967 23.3183 19.0236 22.695C19.2506 22.0716 19.6102 21.5056 20.0774 21.0363C20.5447 20.567 21.1083 20.2057 21.7289 19.9778C22.3494 19.7498 23.0121 19.6607 23.6705 19.7165L23.6506 19.6976C24.294 19.7557 24.9416 19.6497 25.5334 19.3896C26.1251 19.1294 26.6419 18.7233 27.0358 18.2091C27.4298 17.6949 27.6881 17.0891 27.7869 16.4479C27.8856 15.8067 27.8217 15.1508 27.6009 14.5411C27.3801 13.9313 27.0096 13.3874 26.5238 12.9598C26.038 12.5321 25.4526 12.2345 24.8218 12.0946C24.191 11.9547 23.5353 11.977 22.9154 12.1595C22.2955 12.3419 21.7314 12.6786 21.2755 13.1382H21.2724Z" fill="#1D2130"/>
<path d="M13.5606 18.6664L13.5407 18.6475C14.1003 18.7042 14.6655 18.6352 15.1953 18.4456C15.7251 18.2559 16.2064 17.9504 16.6043 17.5511C17.0021 17.1518 17.3067 16.6686 17.4959 16.1366C17.685 15.6046 17.7542 15.037 17.6982 14.4748L17.7181 14.4937C17.6625 13.8324 17.7513 13.1668 17.9782 12.5435C18.2051 11.9202 18.5648 11.3541 19.032 10.8848C19.4993 10.4155 20.0629 10.0543 20.6834 9.82633C21.304 9.59838 21.9667 9.50921 22.6251 9.56503L22.6052 9.54614C23.3929 9.62043 24.1842 9.44887 24.8713 9.05484C25.5583 8.66081 26.1076 8.06351 26.4442 7.3444C26.7808 6.62529 26.8884 5.81938 26.7523 5.03659C26.6161 4.25381 26.2429 3.53227 25.6835 2.97038C25.1241 2.40848 24.4057 2.0336 23.6264 1.89686C22.847 1.76012 22.0446 1.86818 21.3287 2.2063C20.6127 2.54442 20.0181 3.09613 19.6258 3.7862C19.2335 4.47626 19.0627 5.27108 19.1366 6.06223L19.1178 6.04228C19.1736 6.70367 19.0849 7.36931 18.8581 7.99272C18.6312 8.61612 18.2715 9.18227 17.8043 9.65162C17.337 10.121 16.7733 10.4822 16.1526 10.7101C15.532 10.938 14.8693 11.027 14.2108 10.971L14.2296 10.9909C13.67 10.9343 13.1048 11.0033 12.575 11.1929C12.0452 11.3825 11.5639 11.6881 11.1661 12.0874C10.7682 12.4867 10.4636 12.9698 10.2745 13.5019C10.0853 14.0339 10.0162 14.6015 10.0721 15.1636L10.0533 15.1447C10.1087 15.806 10.0198 16.4715 9.79278 17.0948C9.56577 17.718 9.20612 18.284 8.73892 18.7533C8.27172 19.2225 7.70822 19.5838 7.08772 19.8118C6.46722 20.0398 5.80466 20.1291 5.14627 20.0734L5.16509 20.0923C4.37741 20.018 3.58609 20.1896 2.89906 20.5836C2.21203 20.9777 1.66273 21.575 1.3261 22.2941C0.989467 23.0132 0.881883 23.8191 1.01802 24.6019C1.15416 25.3847 1.5274 26.1062 2.08682 26.6681C2.64624 27.23 3.36462 27.6049 4.14396 27.7416C4.9233 27.8784 5.72566 27.7703 6.44161 27.4322C7.15756 27.0941 7.75224 26.5423 8.14454 25.8523C8.53683 25.1622 8.70764 24.3674 8.63367 23.5762L8.65353 23.5951C8.59795 22.9338 8.68673 22.2682 8.91368 21.6449C9.14063 21.0216 9.50027 20.4555 9.96751 19.9862C10.4347 19.5169 10.9983 19.1557 11.6189 18.9277C12.2395 18.6998 12.9021 18.6106 13.5606 18.6664Z" fill="#1D2130"/>
<path d="M6.55445 16.5591C6.95067 16.1588 7.25403 15.6756 7.44286 15.144C7.6317 14.6124 7.70136 14.0455 7.64687 13.4837L7.66674 13.5026C7.61111 12.841 7.69994 12.1753 7.927 11.5518C8.15407 10.9283 8.51391 10.3621 8.98138 9.89278C9.44886 9.42344 10.0127 9.06225 10.6335 8.83445C11.2544 8.60665 11.9173 8.51771 12.5759 8.57386L12.556 8.55497C13.3434 8.62906 14.1344 8.4574 14.8211 8.0634C15.5078 7.6694 16.0568 7.07224 16.3933 6.35335C16.7297 5.63447 16.8372 4.82885 16.701 4.04636C16.5649 3.26387 16.1918 2.5426 15.6326 1.98092C15.0733 1.41923 14.3552 1.04447 13.5762 0.90773C12.7971 0.770995 11.9951 0.878947 11.2793 1.21686C10.5636 1.55478 9.96908 2.1062 9.57682 2.79595C9.18455 3.4857 9.01365 4.28018 9.08741 5.07107L9.0686 5.05217C9.12418 5.71351 9.0354 6.37907 8.80845 7.00239C8.5815 7.62572 8.22186 8.19178 7.75462 8.66109C7.28738 9.13039 6.7238 9.49162 6.10322 9.71957C5.48263 9.94752 4.82 10.0367 4.16156 9.98087L4.18038 9.99977C3.53702 9.94182 2.88951 10.0479 2.29784 10.3082C1.70617 10.5685 1.1895 10.9747 0.795689 11.4889C0.401882 12.0032 0.143686 12.609 0.0450273 13.2502C-0.0536311 13.8914 0.0104395 14.5472 0.231303 15.1569C0.452166 15.7666 0.822676 16.3104 1.3085 16.738C1.79432 17.1655 2.37973 17.463 3.01049 17.6029C3.64125 17.7427 4.29695 17.7204 4.91682 17.5379C5.5367 17.3554 6.10069 17.0188 6.55654 16.5591H6.55445Z" fill="#1D2130"/>
<path d="M38.9373 6.08638H42.042V21.262H38.9373V6.08638Z" fill="#1D2130"/>
<path d="M43.8004 16.0656C43.7961 14.975 44.1141 13.9077 44.7141 12.9988C45.3142 12.0899 46.1693 11.3803 47.1712 10.9599C48.1731 10.5396 49.2767 10.4273 50.3421 10.6374C51.4076 10.8475 52.387 11.3704 53.1563 12.1401C53.9256 12.9097 54.4502 13.8913 54.6636 14.9606C54.877 16.0299 54.7697 17.1388 54.3552 18.1468C53.9407 19.1548 53.2377 20.0165 52.3352 20.6229C51.4327 21.2292 50.3713 21.5529 49.2855 21.5529C48.5648 21.5612 47.8496 21.425 47.1819 21.1525C46.5141 20.8799 45.9072 20.4764 45.3965 19.9655C44.8858 19.4546 44.4816 18.8465 44.2075 18.1769C43.9335 17.5073 43.7951 16.7896 43.8004 16.0656ZM51.6659 16.0656C51.6529 15.5955 51.5023 15.1397 51.2329 14.7551C50.9634 14.3706 50.587 14.0743 50.1509 13.9034C49.7147 13.7325 49.238 13.6945 48.7805 13.7942C48.3229 13.894 47.9048 14.1269 47.5783 14.464C47.2519 14.8011 47.0316 15.2274 46.9451 15.6896C46.8585 16.1517 46.9095 16.6292 47.0917 17.0624C47.2739 17.4957 47.5791 17.8653 47.9693 18.1252C48.3595 18.3851 48.8174 18.5237 49.2855 18.5237C49.6062 18.5323 49.9251 18.474 50.2222 18.3527C50.5194 18.2313 50.7882 18.0494 51.0119 17.8184C51.2355 17.5875 51.4091 17.3125 51.5217 17.0108C51.6342 16.7091 51.6833 16.3873 51.6659 16.0656Z" fill="#1D2130"/>
<path d="M67.1448 10.8681V20.7381C67.1448 24.2304 64.4331 25.7067 61.6806 25.7067C60.7115 25.7796 59.7411 25.5829 58.8759 25.1384C58.0107 24.6939 57.284 24.0186 56.7757 23.1867L59.4247 21.6485C59.6383 22.0821 59.9788 22.4399 60.4004 22.6739C60.8221 22.9079 61.3049 23.0069 61.7841 22.9578C62.0904 23.0004 62.4023 22.9733 62.6968 22.8785C62.9912 22.7837 63.2607 22.6236 63.4852 22.4101C63.7098 22.1966 63.8837 21.9351 63.994 21.6449C64.1043 21.3548 64.1483 21.0434 64.1226 20.7339V19.7837C63.7591 20.2305 63.2963 20.5855 62.7714 20.8201C62.2466 21.0548 61.6743 21.1627 61.1004 21.135C59.7349 21.0918 58.4398 20.5165 57.4891 19.5311C56.5385 18.5456 56.0069 17.2273 56.0069 15.8551C56.0069 14.4829 56.5385 13.1646 57.4891 12.1791C58.4398 11.1936 59.7349 10.6184 61.1004 10.5752C61.6743 10.5475 62.2466 10.6553 62.7714 10.89C63.2963 11.1247 63.7591 11.4797 64.1226 11.9265V10.866L67.1448 10.8681ZM64.1237 15.8567C64.1445 15.3541 64.0152 14.8567 63.7523 14.4286C63.4893 14.0005 63.1049 13.6612 62.6483 13.4544C62.1918 13.2477 61.6841 13.1828 61.1906 13.2683C60.6971 13.3538 60.2403 13.5857 59.8791 13.9341C59.5179 14.2825 59.2688 14.7315 59.1638 15.2233C59.0588 15.7152 59.1027 16.2273 59.29 16.6938C59.4772 17.1604 59.7992 17.56 60.2144 17.8411C60.6297 18.1223 61.1192 18.2723 61.62 18.2717C61.9462 18.2945 62.2736 18.2485 62.581 18.1366C62.8884 18.0247 63.1691 17.8493 63.405 17.6218C63.6408 17.3943 63.8266 17.1197 63.9504 16.8157C64.0742 16.5117 64.1332 16.185 64.1237 15.8567Z" fill="#1D2130"/>
<path d="M68.9031 16.0656C68.8988 14.975 69.2168 13.9077 69.8169 12.9988C70.4169 12.0899 71.2721 11.3803 72.2739 10.9599C73.2758 10.5396 74.3794 10.4273 75.4448 10.6374C76.5103 10.8475 77.4897 11.3704 78.259 12.1401C79.0283 12.9097 79.5529 13.8913 79.7663 14.9606C79.9798 16.0299 79.8724 17.1388 79.4579 18.1468C79.0434 19.1548 78.3404 20.0165 77.4379 20.6229C76.5354 21.2292 75.4741 21.5529 74.3883 21.5529C73.6675 21.5612 72.9524 21.425 72.2846 21.1525C71.6169 20.8799 71.0099 20.4764 70.4992 19.9655C69.9885 19.4546 69.5843 18.8465 69.3103 18.1769C69.0362 17.5073 68.8978 16.7896 68.9031 16.0656ZM76.7686 16.0656C76.7557 15.5955 76.605 15.1397 76.3356 14.7551C76.0661 14.3706 75.6898 14.0743 75.2536 13.9034C74.8174 13.7325 74.3407 13.6945 73.8832 13.7942C73.4256 13.894 73.0075 14.1269 72.6811 14.464C72.3546 14.8011 72.1344 15.2274 72.0478 15.6896C71.9612 16.1517 72.0122 16.6292 72.1944 17.0624C72.3766 17.4957 72.6819 17.8653 73.0721 18.1252C73.4623 18.3851 73.9201 18.5237 74.3883 18.5237C74.7089 18.5323 75.0279 18.474 75.325 18.3527C75.6221 18.2313 75.891 18.0494 76.1146 17.8184C76.3382 17.5875 76.5118 17.3125 76.6244 17.0108C76.7369 16.7091 76.7861 16.3873 76.7686 16.0656Z" fill="#1D2130"/>
<path d="M81.3213 8.08244C81.3213 7.71238 81.4305 7.35062 81.6352 7.04292C81.8399 6.73522 82.1308 6.49539 82.4712 6.35377C82.8116 6.21215 83.1862 6.1751 83.5476 6.2473C83.9089 6.31949 84.2408 6.4977 84.5014 6.75938C84.7619 7.02106 84.9393 7.35445 85.0112 7.71741C85.0831 8.08037 85.0462 8.45658 84.9052 8.79848C84.7642 9.14038 84.5254 9.43261 84.2191 9.6382C83.9127 9.8438 83.5526 9.95354 83.1841 9.95354C82.6916 9.94862 82.2206 9.74991 81.8723 9.40007C81.524 9.05023 81.3262 8.57716 81.3213 8.08244ZM81.6349 10.8681H84.7407V21.2631H81.6307L81.6349 10.8681Z" fill="#1D2130"/>
<path d="M98.1468 16.0656C98.1826 16.7526 98.083 17.4399 97.8535 18.0881C97.6239 18.7363 97.2691 19.3325 96.8094 19.8424C96.3497 20.3524 95.7941 20.766 95.1747 21.0595C94.5553 21.3531 93.8842 21.5208 93.2 21.5529C92.6247 21.5844 92.0495 21.487 91.5163 21.2676C90.9831 21.0482 90.5052 20.7124 90.1172 20.2845V25.42H87.0124V10.8681H90.1172V11.8446C90.5054 11.417 90.9833 11.0815 91.5165 10.8623C92.0497 10.6431 92.6248 10.5457 93.2 10.5772C93.8843 10.6092 94.5556 10.7768 95.1751 11.0704C95.7947 11.364 96.3504 11.7777 96.8101 12.2878C97.2699 12.7979 97.6247 13.3943 97.854 14.0426C98.0834 14.691 98.1829 15.3785 98.1468 16.0656ZM95.042 16.0656C95.0298 15.5791 94.8751 15.107 94.5972 14.7084C94.3192 14.3098 93.9304 14.0024 93.4794 13.8246C93.0283 13.6469 92.5351 13.6067 92.0615 13.7091C91.5878 13.8116 91.1548 14.052 90.8165 14.4004C90.4782 14.7488 90.2498 15.1897 90.1598 15.6679C90.0698 16.1461 90.1222 16.6403 90.3104 17.0887C90.4986 17.5371 90.8144 17.9198 91.2181 18.1888C91.6218 18.4579 92.0956 18.6014 92.5801 18.6013C92.9127 18.6162 93.2447 18.5603 93.5543 18.4372C93.8639 18.3142 94.1441 18.1268 94.3766 17.8874C94.6091 17.648 94.7885 17.3619 94.9032 17.0479C95.0178 16.734 95.0651 16.3992 95.042 16.0656Z" fill="#1D2130"/>
<path d="M107.728 18.1436C107.728 20.5344 105.659 21.5529 103.424 21.5529C102.521 21.6351 101.614 21.4432 100.821 21.0022C100.027 20.5612 99.3839 19.8913 98.9736 19.0791L101.663 17.5409C101.772 17.9163 102.006 18.2429 102.326 18.4661C102.645 18.6893 103.031 18.7956 103.42 18.7673C104.164 18.7673 104.537 18.5384 104.537 18.1236C104.537 16.9791 99.4451 17.5829 99.4451 13.9866C99.4451 11.7197 101.35 10.5773 103.502 10.5773C104.311 10.5515 105.113 10.7443 105.822 11.1355C106.532 11.5266 107.124 12.1018 107.537 12.8012L104.888 14.2355C104.772 13.9632 104.579 13.7313 104.332 13.5686C104.086 13.406 103.797 13.3198 103.502 13.3209C102.964 13.3209 102.632 13.5309 102.632 13.9026C102.637 15.0881 107.728 14.2974 107.728 18.1436Z" fill="#1D2130"/>
<path d="M119.069 10.8681V21.2631H115.964V20.2856C115.606 20.7169 115.151 21.0568 114.637 21.2773C114.123 21.4978 113.564 21.5926 113.006 21.554C110.915 21.554 109.138 20.0577 109.138 17.249V10.8681H112.243V16.7922C112.217 17.0398 112.245 17.2901 112.325 17.5257C112.405 17.7612 112.535 17.9765 112.707 18.1563C112.878 18.3362 113.086 18.4765 113.317 18.5673C113.548 18.6581 113.795 18.6973 114.043 18.6822C115.181 18.6822 115.967 18.0176 115.967 16.5413V10.8713L119.069 10.8681Z" fill="#1D2130"/>
<path d="M136.872 14.8802V21.2621H133.767V15.1501C133.767 14.1106 133.271 13.4459 132.278 13.4459C131.243 13.4459 130.662 14.1736 130.662 15.4V21.2621H127.559V15.1501C127.559 14.1106 127.062 13.4459 126.068 13.4459C125.033 13.4459 124.454 14.1736 124.454 15.4V21.2621H121.349V10.8671H124.454V11.8226C124.776 11.3987 125.198 11.0625 125.683 10.8448C126.167 10.6271 126.698 10.5348 127.227 10.5763C127.759 10.5502 128.288 10.6628 128.763 10.9031C129.238 11.1434 129.643 11.5033 129.938 11.9476C130.282 11.4827 130.738 11.1132 131.263 10.8733C131.788 10.6335 132.364 10.5313 132.939 10.5763C135.315 10.5773 136.872 12.2815 136.872 14.8802Z" fill="#1D2130"/>
<path d="M139.498 10.8041C140.77 10.8041 141.802 9.76798 141.802 8.48988C141.802 7.21179 140.77 6.17569 139.498 6.17569C138.226 6.17569 137.194 7.21179 137.194 8.48988C137.194 9.76798 138.226 10.8041 139.498 10.8041Z" fill="#1D2130"/>
</g>
</svg>
