<svg width="137" height="32" viewBox="0 0 137 32" fill="none" xmlns="http://www.w3.org/2000/svg">
<g opacity="0.6">
<path d="M33.5823 7.63477H36.7353V22.9518H33.5823V7.63477Z" fill="#1D2130"/>
<path d="M38.5009 17.7048C38.501 16.6027 38.8254 15.5256 39.4331 14.6097C40.0408 13.6939 40.9044 12.9806 41.9145 12.5604C42.9245 12.1401 44.0356 12.0318 45.1068 12.2491C46.1779 12.4664 47.161 12.9996 47.9314 13.7811C48.7018 14.5625 49.2248 15.5571 49.4342 16.6387C49.6435 17.7203 49.5297 18.8402 49.1073 19.8565C48.6848 20.8728 47.9727 21.7397 47.0611 22.3474C46.1496 22.955 45.0797 23.2761 43.9871 23.2698C43.2624 23.2755 42.5439 23.1352 41.8737 22.8571C41.2034 22.5791 40.595 22.1689 40.084 21.6506C39.573 21.1322 39.1698 20.5162 38.8979 19.8387C38.6261 19.1611 38.4911 18.4356 38.5009 17.7048ZM46.4044 17.7048C46.392 17.2297 46.241 16.7688 45.9703 16.3798C45.6995 15.9908 45.3211 15.691 44.8823 15.5178C44.4435 15.3446 43.9638 15.3057 43.5032 15.406C43.0426 15.5063 42.6215 15.7414 42.2927 16.0817C41.9639 16.4221 41.7418 16.8528 41.6544 17.3198C41.5669 17.7868 41.6179 18.2694 41.801 18.7073C41.984 19.1452 42.2911 19.519 42.6836 19.7818C43.0762 20.0447 43.5369 20.185 44.0081 20.1852C44.329 20.1915 44.6476 20.131 44.9442 20.0074C45.2408 19.8839 45.509 19.7 45.7319 19.4672C45.9548 19.2344 46.1277 18.9577 46.2398 18.6545C46.3519 18.3512 46.4008 18.0279 46.3834 17.7048H46.4044Z" fill="#1D2130"/>
<path d="M61.9486 12.4578V22.4324C61.9486 25.9516 59.216 27.4462 56.4519 27.4462C55.477 27.5269 54.499 27.3315 53.6282 26.882C52.7573 26.4326 52.0282 25.7469 51.5228 24.9022L54.1818 23.3546C54.3973 23.7927 54.74 24.1542 55.1644 24.3909C55.5887 24.6277 56.0745 24.7283 56.557 24.6796C56.8644 24.7178 57.1764 24.687 57.4706 24.5894C57.7648 24.4918 58.034 24.3299 58.2589 24.1152C58.4839 23.9005 58.659 23.6383 58.7717 23.3474C58.8845 23.0565 58.9322 22.744 58.9112 22.4324V21.4678C58.5443 21.9164 58.0788 22.2727 57.5515 22.5082C57.0243 22.7437 56.4499 22.852 55.8739 22.8246C54.4802 22.8246 53.1436 22.2662 52.1581 21.2722C51.1726 20.2783 50.6189 18.9302 50.6189 17.5246C50.6189 16.1189 51.1726 14.7708 52.1581 13.7769C53.1436 12.783 54.4802 12.2246 55.8739 12.2246C56.4499 12.1971 57.0243 12.3054 57.5515 12.5409C58.0788 12.7765 58.5443 13.1327 58.9112 13.5814V12.5214L61.9486 12.4578ZM58.9112 17.4928C58.9322 16.9856 58.8023 16.4838 58.5382 16.0517C58.2741 15.6196 57.8879 15.2771 57.4292 15.0682C56.9705 14.8593 56.4604 14.7936 55.9644 14.8794C55.4684 14.9653 55.0092 15.1988 54.6458 15.55C54.2825 15.9012 54.0316 16.354 53.9254 16.8502C53.8193 17.3463 53.8627 17.8632 54.0501 18.3342C54.2376 18.8053 54.5604 19.209 54.9772 19.4935C55.394 19.7781 55.8856 19.9303 56.3889 19.9308C56.7173 19.9546 57.047 19.9087 57.3567 19.7961C57.6664 19.6835 57.9492 19.5065 58.1869 19.2768C58.4246 19.047 58.6119 18.7695 58.7367 18.4622C58.8615 18.1549 58.9209 17.8247 58.9112 17.4928Z" fill="#1D2130"/>
<path d="M63.7248 17.7048C63.7248 16.6036 64.0486 15.5273 64.6554 14.6119C65.2621 13.6965 66.1245 12.9832 67.1334 12.5624C68.1422 12.1415 69.2522 12.0319 70.3228 12.2475C71.3934 12.4631 72.3765 12.9941 73.1478 13.7735C73.919 14.5528 74.4437 15.5454 74.6554 16.6256C74.8671 17.7058 74.7564 18.8251 74.3371 19.8417C73.9179 20.8584 73.2091 21.7268 72.3003 22.337C71.3915 22.9473 70.3237 23.2719 69.2319 23.2698C68.5059 23.2769 67.7857 23.1377 67.1137 22.8604C66.4417 22.5831 65.8313 22.1733 65.3183 21.655C64.8054 21.1367 64.4002 20.5203 64.1266 19.8419C63.8529 19.1636 63.7163 18.437 63.7248 17.7048ZM71.6282 17.7048C71.6158 17.2292 71.4645 16.7679 71.1933 16.3787C70.9221 15.9895 70.5431 15.6897 70.1036 15.5168C69.6642 15.3439 69.184 15.3057 68.7231 15.4069C68.2623 15.508 67.8413 15.7441 67.5128 16.0856C67.1844 16.427 66.9632 16.8586 66.877 17.3263C66.7907 17.794 66.8432 18.2769 67.0278 18.7147C67.2125 19.1524 67.5212 19.5254 67.9151 19.787C68.3091 20.0486 68.7708 20.1871 69.2425 20.1852C69.5633 20.1915 69.882 20.131 70.1786 20.0074C70.4751 19.8839 70.7433 19.7 70.9662 19.4672C71.1891 19.2344 71.362 18.9577 71.4741 18.6545C71.5862 18.3512 71.6351 18.0279 71.6177 17.7048H71.6282Z" fill="#1D2130"/>
<path d="M76.2001 9.64871C76.2001 9.27554 76.3098 8.91074 76.5154 8.60046C76.7209 8.29018 77.0131 8.04834 77.3549 7.90553C77.6968 7.76273 78.0729 7.72536 78.4358 7.79816C78.7987 7.87097 79.132 8.05067 79.3937 8.31454C79.6553 8.57842 79.8335 8.91461 79.9057 9.28061C79.9779 9.64662 79.9408 10.026 79.7992 10.3708C79.6576 10.7155 79.4178 11.0102 79.1102 11.2175C78.8025 11.4249 78.4408 11.5355 78.0708 11.5355C77.5764 11.53 77.1037 11.3294 76.7541 10.9768C76.4044 10.6241 76.2056 10.1474 76.2001 9.64871ZM76.5049 12.4577H79.6579V22.9517H76.5049V12.4577Z" fill="#1D2130"/>
<path d="M93.1525 17.7048C93.1879 18.4027 93.086 19.1008 92.8528 19.7588C92.6196 20.4169 92.2597 21.0219 91.7938 21.5391C91.3278 22.0564 90.7651 22.4755 90.1379 22.7726C89.5107 23.0696 88.8315 23.2386 88.1393 23.2698C87.5519 23.3092 86.9633 23.2143 86.4174 22.9922C85.8714 22.7702 85.3822 22.4266 84.9863 21.9872V27.1706H81.8334V12.4578H84.9863V13.4436C85.3828 13.0055 85.8723 12.6635 86.4183 12.4432C86.9643 12.2229 87.5527 12.1301 88.1393 12.1716C88.8287 12.2029 89.5053 12.3709 90.1303 12.6659C90.7553 12.9609 91.3166 13.3772 91.7822 13.891C92.2477 14.4048 92.6083 15.0061 92.8435 15.6604C93.0786 16.3148 93.1836 17.0095 93.1525 17.7048ZM89.9996 17.7048C89.9871 17.2125 89.8309 16.7348 89.5505 16.3317C89.27 15.9285 88.8779 15.6178 88.4231 15.4385C87.9683 15.2592 87.4711 15.2193 86.994 15.3237C86.5168 15.4282 86.0808 15.6724 85.7406 16.0257C85.4004 16.379 85.1712 16.8257 85.0817 17.3098C84.9922 17.7939 85.0464 18.294 85.2374 18.7472C85.4285 19.2004 85.7479 19.5867 86.1557 19.8575C86.5635 20.1284 87.0415 20.2719 87.5297 20.27C87.8642 20.2843 88.1979 20.2272 88.5089 20.1023C88.8199 19.9774 89.1012 19.7877 89.3344 19.5455C89.5677 19.3032 89.7475 19.014 89.8621 18.6968C89.9767 18.3796 90.0236 18.0415 89.9996 17.7048Z" fill="#1D2130"/>
<path d="M102.748 19.8035C102.748 22.2203 100.646 23.2485 98.418 23.2485C97.5092 23.331 96.5968 23.1368 95.7987 22.6908C95.0006 22.2449 94.3534 21.5677 93.9408 20.7469L96.6523 19.1993C96.7598 19.5776 96.9927 19.9071 97.3122 20.1329C97.6317 20.3586 98.0183 20.4669 98.4075 20.4395C99.1537 20.4395 99.5321 20.2063 99.5321 19.7823C99.5321 18.6269 94.4137 19.2417 94.4137 15.6059C94.4137 13.3163 96.3265 12.1715 98.4916 12.1715C99.3145 12.1344 100.132 12.3227 100.858 12.7165C101.583 13.1103 102.189 13.6949 102.611 14.4081L99.8999 15.8497C99.7801 15.5763 99.5844 15.3437 99.3363 15.18C99.0883 15.0164 98.7985 14.9287 98.5021 14.9275C97.9556 14.9275 97.6298 15.1395 97.6298 15.5105C97.6298 16.7189 102.748 15.9239 102.748 19.8035Z" fill="#1D2130"/>
<path d="M114.172 12.4578V22.9518H111.019V21.966C110.661 22.4024 110.206 22.7477 109.692 22.9742C109.177 23.2006 108.616 23.3019 108.056 23.2698C105.954 23.2698 104.156 21.754 104.156 18.9238V12.4578H107.309V18.4468C107.285 18.6972 107.314 18.95 107.396 19.1878C107.477 19.4256 107.609 19.6427 107.782 19.8241C107.955 20.0056 108.164 20.147 108.397 20.2386C108.629 20.3302 108.879 20.3699 109.128 20.3548C110.263 20.3548 111.061 19.6764 111.061 18.2348V12.4578H114.172Z" fill="#1D2130"/>
<path d="M132.039 16.5069V22.9517H128.886V16.7825C128.886 15.7225 128.392 15.0653 127.394 15.0653C126.395 15.0653 125.765 15.7967 125.765 17.0369V22.9517H122.612V16.7825C122.612 15.7225 122.118 15.0653 121.119 15.0653C120.121 15.0653 119.49 15.7967 119.49 17.0369V22.9517H116.337V12.4577H119.49V13.4223C119.817 12.9962 120.243 12.6587 120.731 12.4403C121.219 12.222 121.754 12.1296 122.286 12.1715C122.819 12.1435 123.351 12.2558 123.828 12.4974C124.305 12.7389 124.712 13.1015 125.008 13.5495C125.354 13.0815 125.813 12.7096 126.34 12.4686C126.868 12.2276 127.447 12.1254 128.024 12.1715C130.484 12.1715 132.039 13.8887 132.039 16.5069Z" fill="#1D2130"/>
<path d="M14.8011 4.87878V0.373779H0.717773V31.3258H14.8011V26.8208C11.9161 26.8208 9.1493 25.6649 7.10933 23.6074C5.06935 21.55 3.9233 18.7595 3.9233 15.8498C3.9233 12.9401 5.06935 10.1496 7.10933 8.09211C9.1493 6.03465 11.9161 4.87878 14.8011 4.87878Z" fill="#1D2130"/>
<path d="M14.8011 4.87878V26.8208C17.686 26.8208 20.4528 25.6649 22.4927 23.6074C24.5327 21.55 25.6788 18.7595 25.6788 15.8498C25.6788 12.9401 24.5327 10.1496 22.4927 8.09211C20.4528 6.03465 17.686 4.87878 14.8011 4.87878Z" fill="#1D2130"/>
<path d="M134.688 12.3942C135.965 12.3942 137 11.3501 137 10.0622C137 8.77422 135.965 7.73015 134.688 7.73015C133.411 7.73015 132.376 8.77422 132.376 10.0622C132.376 11.3501 133.411 12.3942 134.688 12.3942Z" fill="#1D2130"/>
</g>
</svg>
