<svg width="134" height="32" viewBox="0 0 134 32" fill="none" xmlns="http://www.w3.org/2000/svg">
<g opacity="0.6">
<path d="M38.4423 9.82298H41.816V23.473H38.4423V9.82298ZM43.1612 18.3385C43.1612 14.9575 45.2632 12.931 48.4162 12.931C51.5692 12.931 53.6711 14.9575 53.6711 18.3385C53.6711 21.7195 51.6427 23.767 48.4162 23.767C45.1896 23.767 43.1612 21.793 43.1612 18.3385ZM50.329 18.3385C50.329 16.48 49.6038 15.388 48.4477 15.388C47.2916 15.388 46.5769 16.438 46.5769 18.3385C46.5769 20.239 47.2916 21.2785 48.4477 21.2785C49.6038 21.2785 50.35 20.239 50.35 18.349L50.329 18.3385ZM55.0164 24.1765H58.2745C58.4228 24.5269 58.6819 24.8192 59.0121 25.0088C59.3422 25.1984 59.7255 25.2749 60.1032 25.2265C61.3959 25.2265 62.0686 24.5335 62.0686 23.5045V21.6145H62.0791C61.8007 22.203 61.3505 22.6935 60.7877 23.0215C60.2249 23.3495 59.5759 23.4995 58.9261 23.452C56.4563 23.452 54.8167 21.5725 54.8167 18.3385C54.8167 15.1045 56.3827 13.0885 59.0207 13.0885C59.6871 13.0529 60.3483 13.2246 60.9129 13.58C61.4776 13.9354 61.9181 14.457 62.1737 15.073H62.0791V13.1725H65.4212V23.3995C65.4212 25.867 63.2352 27.4105 60.0191 27.4105C57.0974 27.4 55.2266 26.0665 55.0374 24.187L55.0164 24.1765ZM62.0791 18.3385C62.0791 16.69 61.3224 15.6505 60.1242 15.6505C58.9261 15.6505 58.1904 16.7005 58.1904 18.3385C58.1904 19.9765 58.9156 20.9425 60.1242 20.9425C61.3329 20.9425 62.0791 20.05 62.0791 18.3385ZM66.756 18.3385C66.756 14.9575 68.858 12.931 72.011 12.931C75.1639 12.931 77.2659 14.9575 77.2659 18.3385C77.2659 21.7195 75.227 23.767 72.011 23.767C68.7949 23.767 66.777 21.793 66.777 18.3385H66.756ZM73.9238 18.3385C73.9238 16.48 73.1881 15.388 72.0425 15.388C70.8969 15.388 70.1717 16.438 70.1717 18.3385C70.1717 20.239 70.8864 21.2785 72.0425 21.2785C73.1986 21.2785 73.9448 20.239 73.9448 18.349L73.9238 18.3385ZM78.6322 10.684C78.6175 10.3406 78.706 10.0008 78.8863 9.7081C79.0665 9.41542 79.3303 9.18331 79.6437 9.04163C79.957 8.89996 80.3057 8.8552 80.6447 8.91311C80.9838 8.97101 81.2977 9.12895 81.5462 9.36658C81.7947 9.60422 81.9663 9.91069 82.039 10.2466C82.1117 10.5825 82.0821 10.9324 81.9541 11.2513C81.8261 11.5703 81.6055 11.8437 81.3206 12.0364C81.0358 12.229 80.6998 12.3322 80.3558 12.3325C80.136 12.3381 79.9173 12.3 79.7123 12.2204C79.5073 12.1408 79.3202 12.0214 79.1618 11.869C79.0034 11.7166 78.8769 11.5343 78.7896 11.3327C78.7023 11.1311 78.6559 10.9141 78.6532 10.6945L78.6322 10.684ZM78.6322 13.162H82.0479V23.515H78.6848L78.6322 13.162ZM94.334 18.3385C94.334 21.709 92.8206 23.662 90.2457 23.662C89.5865 23.7026 88.9306 23.5401 88.3668 23.1965C87.8029 22.8529 87.3582 22.3447 87.0927 21.7405H87.0296V26.8435H83.656V13.1935H87.0086V15.0415H87.0717C87.3281 14.4254 87.7685 13.9033 88.3327 13.5463C88.8969 13.1893 89.5576 13.0148 90.2247 13.0465C92.8732 13.0255 94.3971 14.968 94.3971 18.349L94.334 18.3385ZM90.8973 18.3385C90.8973 16.7005 90.1301 15.64 88.9425 15.64C87.7548 15.64 87.0086 16.69 86.9981 18.3385C86.9876 19.987 87.7548 21.0265 88.9425 21.0265C90.1301 21.0265 90.9604 20.05 90.9604 18.349L90.8973 18.3385ZM100.093 12.9205C102.921 12.9205 104.676 14.254 104.697 16.396H101.617C101.617 15.6505 100.997 15.1885 100.072 15.1885C99.1476 15.1885 98.7062 15.5455 98.7062 16.081C98.7062 16.6165 99.095 16.7845 99.8728 16.942L102.038 17.383C104.14 17.824 104.981 18.664 104.981 20.2285C104.981 22.3285 103.036 23.7565 100.146 23.7565C97.2558 23.7565 95.3745 22.3705 95.2379 20.26H98.5065C98.6011 21.0265 99.2106 21.478 100.199 21.478C101.187 21.478 101.649 21.163 101.649 20.6065C101.649 20.05 101.334 19.9555 100.524 19.7875L98.5695 19.378C96.5411 18.9475 95.4796 17.887 95.4796 16.3015C95.5427 14.2435 97.3084 12.931 100.157 12.931L100.093 12.9205ZM116.279 23.5045H113.01V21.562H112.947C112.764 22.2099 112.366 22.7762 111.817 23.1675C111.269 23.5588 110.604 23.7517 109.931 23.7145C109.423 23.731 108.917 23.64 108.447 23.4475C107.976 23.255 107.552 22.9653 107.202 22.5974C106.852 22.2296 106.583 21.7919 106.414 21.313C106.245 20.8342 106.179 20.325 106.221 19.819V13.1725H109.594V19.0945C109.594 20.3125 110.236 20.974 111.287 20.974C111.533 20.9721 111.776 20.9174 112 20.8136C112.224 20.7098 112.422 20.5592 112.583 20.3721C112.743 20.185 112.861 19.9657 112.93 19.729C112.998 19.4923 113.015 19.2437 112.979 19V13.1725H116.342L116.279 23.5045ZM117.908 13.162H121.187V15.157H121.26C121.442 14.5179 121.83 13.9568 122.364 13.5617C122.899 13.1665 123.549 12.9594 124.214 12.973C124.881 12.915 125.546 13.1078 126.079 13.5136C126.611 13.9195 126.973 14.5092 127.093 15.1675H127.241C127.451 14.5057 127.874 13.9318 128.444 13.5349C129.014 13.1381 129.699 12.9405 130.394 12.973C130.855 12.9554 131.315 13.0354 131.743 13.2077C132.171 13.38 132.558 13.6407 132.879 13.9727C133.199 14.3048 133.446 14.7007 133.603 15.1346C133.759 15.5685 133.823 16.0305 133.788 16.4905V23.515H130.394V17.3515C130.394 16.3015 129.9 15.7135 128.943 15.7135C128.731 15.71 128.521 15.7524 128.327 15.8377C128.132 15.9231 127.959 16.0494 127.818 16.208C127.677 16.3665 127.573 16.5536 127.511 16.7565C127.449 16.9593 127.433 17.173 127.461 17.383V23.515H124.245V17.32C124.245 16.27 123.73 15.7135 122.805 15.7135C122.591 15.7118 122.379 15.7559 122.183 15.8429C121.987 15.9299 121.812 16.0577 121.67 16.2178C121.527 16.3779 121.421 16.5666 121.358 16.7712C121.294 16.9758 121.276 17.1915 121.303 17.404V23.515H117.929L117.908 13.162Z" fill="#1D2130"/>
<path d="M31.7684 10.7156C31.7685 8.62575 31.1368 6.58461 29.9561 4.85952C28.7754 3.13444 27.1007 1.80583 25.1514 1.04772C23.2021 0.289614 21.069 0.137361 19.0316 0.610903C16.9943 1.08444 15.1475 2.1617 13.7333 3.70157H0.616943V31.3586H28.3106V18.4331C29.3976 17.4618 30.2673 16.2724 30.8631 14.9426C31.4589 13.6129 31.7674 12.1725 31.7684 10.7156ZM26.4398 10.7156C26.4419 11.717 26.1466 12.6965 25.5912 13.5302C25.0358 14.3638 24.2454 15.0141 23.3199 15.3988C22.3945 15.7835 21.3756 15.8852 20.3922 15.6911C19.4089 15.497 18.5052 15.0158 17.7957 14.3085C17.0862 13.6011 16.6027 12.6993 16.4064 11.7173C16.2101 10.7353 16.3098 9.71713 16.6929 8.79174C17.076 7.86635 17.7253 7.07531 18.5586 6.51873C19.3918 5.96216 20.3717 5.66507 21.374 5.66507C22.7158 5.66507 24.0027 6.19683 24.9524 7.14369C25.9021 8.09054 26.437 9.37513 26.4398 10.7156ZM22.9821 26.0351H5.94547V9.02507H11.1374C11.0371 9.5831 10.9843 10.1486 10.9797 10.7156C10.9825 13.4689 12.0785 16.1086 14.0272 18.0554C15.9759 20.0023 18.6182 21.0973 21.374 21.1001C21.9128 21.0972 22.4505 21.0516 22.9821 20.9636V26.0351Z" fill="#1D2130"/>
</g>
</svg>
