<svg width="126" height="30" viewBox="0 0 126 30" fill="none" xmlns="http://www.w3.org/2000/svg">
<g opacity="0.6">
<path d="M37.0788 8.63439H40.2317V21.3709H37.0788V8.63439ZM41.4824 16.5619C41.4824 13.4119 43.4162 11.5324 46.4011 11.5324C49.3859 11.5324 51.3197 13.4119 51.3197 16.5619C51.3197 19.7119 49.4279 21.6019 46.4011 21.6019C43.3742 21.6019 41.4824 19.7644 41.4824 16.5619ZM48.1562 16.5619C48.1562 14.8294 47.4731 13.8109 46.4011 13.8109C45.329 13.8109 44.6564 14.8609 44.6564 16.5619C44.6564 18.2629 45.3185 19.2919 46.4011 19.2919C47.4836 19.2919 48.1562 18.3259 48.1562 16.5724V16.5619ZM52.5073 21.9904H55.5342C55.6782 22.3101 55.9218 22.5748 56.2286 22.7451C56.5353 22.9154 56.889 22.9821 57.2368 22.9354C58.4349 22.9354 59.0655 22.2844 59.0655 21.3394V19.5754H59.0025C58.7512 20.116 58.3436 20.569 57.8322 20.876C57.3208 21.1829 56.729 21.3297 56.1332 21.2974C53.8316 21.2974 52.3076 19.5439 52.3076 16.5304C52.3076 13.5169 53.758 11.6164 56.1753 11.6164C56.7897 11.5923 57.3968 11.7564 57.9152 12.0867C58.4337 12.417 58.8387 12.8977 59.076 13.4644V11.7109H62.229V21.2659C62.229 23.5654 60.2006 24.9934 57.2053 24.9934C54.4201 24.9934 52.686 23.7439 52.5073 22.0009V21.9904ZM59.076 16.5514C59.076 15.0184 58.3719 14.0524 57.2578 14.0524C56.1438 14.0524 55.4606 15.0079 55.4606 16.5514C55.4606 18.0949 56.1332 18.9664 57.2578 18.9664C58.3824 18.9664 59.076 18.1159 59.076 16.5619V16.5514ZM63.4166 16.5514C63.4166 13.4014 65.3504 11.5219 68.3353 11.5219C71.3201 11.5219 73.2644 13.4014 73.2644 16.5514C73.2644 19.7014 71.3726 21.5914 68.3353 21.5914C65.2979 21.5914 63.4166 19.7644 63.4166 16.5619V16.5514ZM70.0904 16.5514C70.0904 14.8189 69.4073 13.8004 68.3353 13.8004C67.2633 13.8004 66.6432 14.8609 66.6432 16.5724C66.6432 18.2839 67.3053 19.3024 68.3773 19.3024C69.4493 19.3024 70.0904 18.3259 70.0904 16.5724V16.5514ZM74.4626 9.42189C74.4543 9.10385 74.5407 8.79052 74.7109 8.52162C74.8811 8.25273 75.1274 8.04037 75.4185 7.91147C75.7097 7.78257 76.0326 7.74294 76.3463 7.79759C76.66 7.85225 76.9504 7.99873 77.1807 8.21848C77.411 8.43822 77.5708 8.72132 77.6398 9.0319C77.7088 9.34248 77.684 9.66655 77.5685 9.96302C77.453 10.2595 77.2519 10.515 76.9909 10.6972C76.7298 10.8794 76.4205 10.98 76.1021 10.9864C75.891 11.0009 75.6793 10.9716 75.4801 10.9004C75.2809 10.8292 75.0986 10.7176 74.9446 10.5727C74.7906 10.4277 74.6683 10.2526 74.5854 10.0581C74.5024 9.8637 74.4606 9.65423 74.4626 9.44289V9.42189ZM74.4626 11.7319H77.6155V21.3709H74.4626V11.7319ZM89.0608 16.5514C89.0608 19.7014 87.663 21.4969 85.2668 21.4969C84.6523 21.5363 84.0406 21.3862 83.5142 21.067C82.9879 20.7477 82.5724 20.2747 82.324 19.7119H82.2609V24.4579H79.1079V11.7109H82.2609V13.4329H82.324C82.5609 12.8608 82.9685 12.3754 83.4912 12.0429C84.014 11.7104 84.6266 11.5468 85.2457 11.5744C87.663 11.6164 89.1029 13.4224 89.1029 16.5724L89.0608 16.5514ZM85.9079 16.5514C85.9079 15.0184 85.2037 14.0419 84.1002 14.0419C82.9966 14.0419 82.2924 15.0289 82.2819 16.5514C82.2714 18.0739 82.9966 19.0504 84.1002 19.0504C85.2037 19.0504 85.9079 18.0949 85.9079 16.5724V16.5514ZM94.4734 11.5114C97.0904 11.5114 98.6774 12.7504 98.751 14.7349H95.8818C95.8818 14.0524 95.3142 13.6219 94.4419 13.6219C93.5696 13.6219 93.1807 13.9579 93.1807 14.4514C93.1807 14.9449 93.5275 15.1024 94.2317 15.2494L96.2496 15.6589C98.1729 16.0684 98.9927 16.8454 98.9927 18.3049C98.9927 20.2999 97.1745 21.5809 94.4945 21.5809C91.8144 21.5809 90.0593 20.2999 89.9227 18.3364H92.96C93.0546 19.0504 93.6221 19.4704 94.547 19.4704C95.4719 19.4704 95.8923 19.1659 95.8923 18.6619C95.8923 18.1579 95.598 18.0529 94.8413 17.8954L93.0231 17.5069C91.1418 17.1184 90.1539 16.1209 90.1539 14.6509C90.1749 12.7609 91.867 11.5324 94.4734 11.5324V11.5114ZM109.513 21.3499H106.476V19.5544H106.413C106.246 20.1572 105.877 20.6848 105.369 21.0497C104.86 21.4145 104.242 21.5945 103.617 21.5599C103.138 21.5871 102.659 21.5113 102.212 21.3375C101.764 21.1638 101.36 20.8961 101.025 20.5527C100.69 20.2093 100.433 19.7981 100.271 19.3469C100.109 18.8958 100.046 18.4151 100.086 17.9374V11.7109H103.239V17.2129C103.239 18.3574 103.827 18.9664 104.805 18.9664C105.034 18.9669 105.261 18.9184 105.469 18.8242C105.678 18.73 105.865 18.5923 106.016 18.4202C106.167 18.2482 106.28 18.0459 106.347 17.8268C106.413 17.6077 106.432 17.3769 106.402 17.1499V11.7109H109.555L109.513 21.3499ZM111.037 11.7109H114.085V13.5694H114.148C114.315 12.9745 114.675 12.4519 115.172 12.0833C115.668 11.7147 116.273 11.521 116.891 11.5324C117.52 11.4821 118.145 11.6702 118.642 12.0593C119.138 12.4484 119.47 13.01 119.571 13.6324H119.634C119.825 13.0034 120.22 12.4556 120.756 12.0754C121.293 11.6952 121.941 11.5042 122.598 11.5324C123.027 11.518 123.454 11.5939 123.851 11.7551C124.249 11.9164 124.608 12.1594 124.905 12.4684C125.203 12.7773 125.432 13.1453 125.577 13.5485C125.723 13.9516 125.782 14.3809 125.751 14.8084V21.3709H122.598V15.6484C122.598 14.5984 122.125 14.1154 121.242 14.1154C121.045 14.1137 120.85 14.1543 120.671 14.2343C120.491 14.3143 120.33 14.4319 120.2 14.5792C120.069 14.7265 119.972 14.9 119.914 15.088C119.856 15.2761 119.84 15.4744 119.865 15.6694V21.3709H116.87V15.6064C116.87 14.6404 116.397 14.1154 115.535 14.1154C115.336 14.1154 115.139 14.1577 114.958 14.2393C114.776 14.3209 114.614 14.4401 114.482 14.5889C114.35 14.7378 114.251 14.9129 114.192 15.1028C114.132 15.2926 114.114 15.4929 114.138 15.6904V21.3709H110.985L111.037 11.7109Z" fill="#1D2130"/>
<path d="M28.2609 9.21194C27.7261 7.99012 27.0182 6.85147 26.159 5.83095C24.8888 4.2773 23.3037 3.01001 21.508 2.11248C19.7122 1.21496 17.7466 0.707542 15.7405 0.623639C13.7343 0.539735 11.7331 0.881242 9.8686 1.62569C8.00408 2.37013 6.3185 3.50063 4.92281 4.94278C3.52711 6.38493 2.45295 8.10603 1.77101 9.99281C1.08907 11.8796 0.814821 13.8893 0.966312 15.8895C1.1178 17.8898 1.6916 19.8354 2.64994 21.5982C3.60827 23.361 4.92942 24.901 6.52642 26.1169C7.55115 26.9127 8.68343 27.5596 9.8896 28.0384C11.5807 28.7308 13.3906 29.0874 15.2181 29.0884C18.9906 29.0801 22.6058 27.5778 25.2714 24.9108C27.9369 22.2439 29.4353 18.6298 29.4381 14.8609C29.4408 12.9169 29.04 10.9934 28.2609 9.21194ZM15.2076 3.51044C16.8488 3.51027 18.4702 3.86864 19.9581 4.56044C19.5953 4.71707 19.2138 4.82647 18.823 4.88594C17.5372 5.07189 16.3461 5.66827 15.4275 6.58607C14.5088 7.50387 13.9118 8.69387 13.7257 9.97844C13.644 10.6989 13.3161 11.3691 12.7972 11.876C12.2783 12.3829 11.6003 12.6955 10.8775 12.7609C9.59174 12.9469 8.40062 13.5433 7.48196 14.4611C6.56329 15.3789 5.96634 16.5689 5.78022 17.8534C5.7172 18.5385 5.42466 19.1822 4.94993 19.6804C4.13085 17.9514 3.76289 16.0434 3.88031 14.134C3.99773 12.2247 4.5967 10.3761 5.62149 8.76018C6.64627 7.14428 8.06357 5.81364 9.74148 4.89208C11.4194 3.97053 13.3034 3.48801 15.2181 3.48944L15.2076 3.51044ZM6.51591 22.2109C6.64203 22.0954 6.76815 21.9904 6.89427 21.8644C7.82929 20.9588 8.42947 19.7632 8.59688 18.4729C8.66476 17.7476 8.9889 17.0702 9.51124 16.5619C10.0139 16.0392 10.6904 15.7181 11.4135 15.6589C12.6993 15.473 13.8904 14.8766 14.8091 13.9588C15.7278 13.041 16.3247 11.851 16.5109 10.5664C16.5563 9.80783 16.8822 9.09313 17.4252 8.56094C17.9403 8.04839 18.6233 7.7389 19.3485 7.68944C20.5298 7.52707 21.6314 7.00244 22.5015 6.18794C23.4922 7.00912 24.3316 7.99698 24.9819 9.10694C24.9419 9.16086 24.8961 9.21017 24.8452 9.25394C24.3435 9.78125 23.6679 10.1094 22.9429 10.1779C21.6558 10.3606 20.4629 10.956 19.5436 11.8744C18.6244 12.7928 18.0285 13.9846 17.8456 15.2704C17.7715 15.9933 17.4496 16.6683 16.9344 17.1812C16.4191 17.694 15.7422 18.0131 15.0184 18.0844C13.7289 18.269 12.5333 18.8642 11.6093 19.7816C10.6854 20.699 10.0822 21.8898 9.8896 23.1769C9.83304 23.6901 9.65664 24.1828 9.37461 24.6154C8.29629 23.9758 7.33052 23.1635 6.51591 22.2109ZM15.2076 26.2639C14.1412 26.2651 13.0798 26.1167 12.0546 25.8229C12.4053 25.1698 12.6333 24.4581 12.7273 23.7229C12.8009 23.0017 13.1214 22.3279 13.6345 21.8153C14.1476 21.3026 14.822 20.9825 15.5439 20.9089C16.8316 20.7251 18.0251 20.1296 18.9459 19.2117C19.8666 18.2937 20.4651 17.1025 20.6518 15.8164C20.7254 15.0952 21.0458 14.4214 21.559 13.9088C22.0721 13.3961 22.7465 13.076 23.4684 13.0024C24.4375 12.8765 25.3611 12.5161 26.159 11.9524C26.602 13.6302 26.6545 15.3871 26.3124 17.0884C25.9703 18.7896 25.2426 20.3899 24.1853 21.7665C23.128 23.1432 21.7691 24.2596 20.2129 25.0301C18.6567 25.8006 16.9445 26.2047 15.2076 26.2114V26.2639Z" fill="#1D2130"/>
</g>
</svg>
