<svg width="124" height="26" viewBox="0 0 124 26" fill="none" xmlns="http://www.w3.org/2000/svg">
<g opacity="0.6">
<path d="M40.2261 20.543C39.6043 20.5766 38.9893 20.4007 38.4803 20.0438C38.2676 19.887 38.0965 19.681 37.9818 19.4436C37.867 19.2062 37.8121 18.9446 37.8217 18.6814V9.04064C37.8166 8.99982 37.821 8.95839 37.8344 8.91949C37.8479 8.8806 37.87 8.84526 37.8993 8.81618C37.9285 8.7871 37.964 8.76503 38.0031 8.75167C38.0422 8.7383 38.0839 8.73398 38.1249 8.73904H39.8811C40.0797 8.73904 40.1738 8.84304 40.1738 9.04064V17.9326C40.1738 18.3278 40.3515 18.5254 40.7174 18.5254C40.8725 18.5318 41.0277 18.5143 41.1774 18.4734C41.3864 18.4734 41.5014 18.5358 41.5119 18.723L41.6687 20.023C41.6762 20.0609 41.6755 20.1 41.6666 20.1376C41.6577 20.1752 41.6407 20.2105 41.617 20.241C41.5932 20.2716 41.5631 20.2967 41.5288 20.3147C41.4944 20.3327 41.4566 20.3432 41.4178 20.3454C41.0331 20.4718 40.6312 20.5385 40.2261 20.543Z" fill="#1D2130"/>
<path d="M50.1048 19.4303C49.2224 20.1557 48.1134 20.5525 46.9687 20.5525C45.824 20.5525 44.7151 20.1557 43.8326 19.4303C43.057 18.6513 42.6218 17.5992 42.6218 16.5027C42.6218 15.4062 43.057 14.3541 43.8326 13.5751C44.7168 12.8535 45.8251 12.4591 46.9687 12.4591C48.1124 12.4591 49.2207 12.8535 50.1048 13.5751C50.8626 14.3613 51.2856 15.4083 51.2856 16.4975C51.2856 17.5867 50.8626 18.6337 50.1048 19.4199V19.4303ZM45.4843 18.0575C45.8938 18.4266 46.4266 18.6309 46.9792 18.6309C47.5317 18.6309 48.0645 18.4266 48.4741 18.0575C48.8447 17.6335 49.0488 17.0906 49.0488 16.5287C49.0488 15.9668 48.8447 15.4239 48.4741 14.9999C48.0645 14.6308 47.5317 14.4264 46.9792 14.4264C46.4266 14.4264 45.8938 14.6308 45.4843 14.9999C45.1137 15.4239 44.9095 15.9668 44.9095 16.5287C44.9095 17.0906 45.1137 17.6335 45.4843 18.0575Z" fill="#1D2130"/>
<path d="M60.9558 12.7222C61.1544 12.7222 61.2485 12.8262 61.2485 13.0238V20.4806C61.2668 20.9839 61.1721 21.4849 60.9714 21.9473C60.7707 22.4096 60.4689 22.8216 60.0881 23.1534C59.2429 23.8705 58.1558 24.2421 57.0461 24.1934C56.0437 24.2285 55.0548 23.9562 54.2131 23.4134C53.8538 23.1786 53.5467 22.8728 53.3111 22.515C53.0756 22.1572 52.9165 21.755 52.8437 21.3334C52.8437 21.1254 52.8437 21.0318 53.1259 21.0318H54.8822C54.9567 21.0344 55.029 21.0583 55.0902 21.1007C55.1514 21.1432 55.199 21.2023 55.2272 21.271C55.341 21.5869 55.5681 21.8498 55.8648 22.0094C56.2264 22.195 56.6288 22.288 57.0356 22.2798C57.2811 22.2932 57.5268 22.2578 57.7583 22.1757C57.9898 22.0935 58.2026 21.9663 58.3842 21.8014C58.55 21.629 58.6791 21.4249 58.7635 21.2014C58.848 20.978 58.8861 20.7399 58.8755 20.5014V19.8462C58.2467 20.3064 57.4814 20.5443 56.7011 20.5222C56.155 20.542 55.6105 20.4518 55.1004 20.257C54.5902 20.0622 54.1249 19.7668 53.7323 19.3886C52.9786 18.6129 52.5573 17.5763 52.5573 16.4974C52.5573 15.4186 52.9786 14.3819 53.7323 13.6062C54.1268 13.2314 54.5927 12.9389 55.1025 12.746C55.6124 12.5531 56.156 12.4637 56.7011 12.483C57.504 12.4619 58.2898 12.7152 58.9278 13.2006V13.0342C58.923 12.9944 58.9272 12.954 58.94 12.9159C58.9529 12.8779 58.9741 12.8431 59.0021 12.8143C59.0301 12.7854 59.0643 12.7631 59.102 12.749C59.1398 12.7348 59.1803 12.7293 59.2205 12.7326L60.9558 12.7222ZM56.8997 18.671C57.1691 18.6793 57.4369 18.6287 57.6844 18.5226C57.9319 18.4166 58.1529 18.2578 58.3319 18.0574C58.6794 17.6109 58.868 17.0622 58.868 16.4974C58.868 15.9327 58.6794 15.384 58.3319 14.9374C58.1535 14.7398 57.9338 14.5833 57.6882 14.4791C57.4426 14.3749 57.1771 14.3255 56.9102 14.3342C56.6378 14.3257 56.3667 14.3762 56.1159 14.4821C55.865 14.5881 55.6402 14.747 55.4571 14.9478C55.0721 15.375 54.8696 15.9346 54.8926 16.5078C54.8738 17.0755 55.0717 17.6292 55.4467 18.0574C55.6302 18.2578 55.855 18.4163 56.1058 18.5222C56.3566 18.6281 56.6274 18.6789 56.8997 18.671Z" fill="#1D2130"/>
<path d="M70.27 19.4302C69.3858 20.1519 68.2775 20.5463 67.1339 20.5463C65.9903 20.5463 64.882 20.1519 63.9978 19.4302C63.2394 18.6423 62.816 17.5936 62.816 16.5026C62.816 15.4117 63.2394 14.3629 63.9978 13.575C64.8828 12.8553 65.9908 12.4621 67.1339 12.4621C68.277 12.4621 69.385 12.8553 70.27 13.575C71.0278 14.3612 71.4508 15.4083 71.4508 16.4974C71.4508 17.5866 71.0278 18.6337 70.27 19.4198V19.4302ZM65.639 18.0574C65.8394 18.2471 66.0757 18.3953 66.3341 18.4935C66.5925 18.5917 66.8679 18.6379 67.1443 18.6294C67.4191 18.6365 67.6925 18.5896 67.949 18.4915C68.2055 18.3933 68.4401 18.2458 68.6392 18.0574C69.0038 17.6306 69.204 17.0888 69.204 16.5286C69.204 15.9685 69.0038 15.4267 68.6392 14.9998C68.4401 14.8114 68.2055 14.6639 67.949 14.5658C67.6925 14.4676 67.4191 14.4208 67.1443 14.4278C66.8679 14.4194 66.5925 14.4656 66.3341 14.5638C66.0757 14.662 65.8394 14.8102 65.639 14.9998C65.2744 15.4267 65.0742 15.9685 65.0742 16.5286C65.0742 17.0888 65.2744 17.6306 65.639 18.0574Z" fill="#1D2130"/>
<path d="M75.2251 10.9543C74.9488 11.1949 74.594 11.3275 74.2268 11.3275C73.8596 11.3275 73.5048 11.1949 73.2285 10.9543C73.1032 10.8366 73.0034 10.6948 72.9351 10.5374C72.8669 10.38 72.8317 10.2105 72.8317 10.0391C72.8317 9.86769 72.8669 9.69811 72.9351 9.54074C73.0034 9.38336 73.1032 9.24151 73.2285 9.12388C73.5077 8.88927 73.8613 8.76056 74.2268 8.76056C74.5923 8.76056 74.9459 8.88927 75.2251 9.12388C75.3504 9.24151 75.4502 9.38336 75.5184 9.54074C75.5867 9.69811 75.6219 9.86769 75.6219 10.0391C75.6219 10.2105 75.5867 10.38 75.5184 10.5374C75.4502 10.6948 75.3504 10.8366 75.2251 10.9543ZM75.4446 20.5431C74.8232 20.5734 74.2093 20.3978 73.6989 20.0439C73.4894 19.8847 73.3213 19.678 73.2085 19.441C73.0958 19.204 73.0417 18.9435 73.0508 18.6815V13.0239C73.0457 12.9831 73.05 12.9416 73.0635 12.9027C73.0769 12.8638 73.0991 12.8285 73.1283 12.7994C73.1575 12.7703 73.193 12.7483 73.2321 12.7349C73.2712 12.7215 73.3129 12.7172 73.3539 12.7223H75.1101C75.3088 12.7223 75.4028 12.8263 75.4028 13.0239V17.9327C75.4028 18.3279 75.5806 18.5255 75.936 18.5255C76.0945 18.5311 76.253 18.5136 76.4064 18.4735C76.6155 18.4735 76.7305 18.5359 76.7409 18.7231L76.8977 20.0231C76.9053 20.061 76.9045 20.1 76.8956 20.1376C76.8867 20.1753 76.8698 20.2105 76.846 20.2411C76.8222 20.2716 76.7922 20.2967 76.7578 20.3148C76.7234 20.3328 76.6856 20.3432 76.6468 20.3455C76.2588 20.4726 75.8532 20.5393 75.4446 20.5431Z" fill="#1D2130"/>
<path d="M83.3582 12.4727C83.9068 12.4511 84.4541 12.5394 84.9677 12.7324C85.4813 12.9253 85.9507 13.219 86.348 13.5959C87.0872 14.3852 87.4982 15.4239 87.4982 16.5027C87.4982 17.5815 87.0872 18.6202 86.348 19.4095C85.9526 19.7898 85.4838 20.0863 84.9699 20.2811C84.456 20.476 83.9077 20.5651 83.3582 20.5431C82.5754 20.5604 81.8083 20.3231 81.1734 19.8671V23.6215C81.1734 23.8191 81.0689 23.9127 80.8702 23.9127H79.114C79.0739 23.9202 79.0326 23.9178 78.9937 23.9058C78.9548 23.8938 78.9193 23.8725 78.8905 23.8438C78.8617 23.8152 78.8403 23.7799 78.8283 23.7412C78.8162 23.7024 78.8138 23.6614 78.8213 23.6215V15.0935C78.8336 15.0101 78.8261 14.925 78.7995 14.8449C78.7729 14.7649 78.7278 14.6922 78.6678 14.6326C78.6079 14.5729 78.5348 14.5281 78.4544 14.5016C78.3739 14.4751 78.2884 14.4677 78.2045 14.4799H77.8596C77.6296 14.4799 77.5146 14.3967 77.5146 14.2303V13.0031C77.5092 12.9272 77.5301 12.8517 77.5738 12.7892C77.6176 12.7268 77.6815 12.6811 77.755 12.6599C78.1166 12.5291 78.4993 12.4657 78.884 12.4727C79.2676 12.4389 79.6527 12.5199 79.9898 12.7051C80.3269 12.8904 80.6007 13.1716 80.7761 13.5127C81.1129 13.1738 81.5155 12.9068 81.9595 12.728C82.4034 12.5492 82.8794 12.4623 83.3582 12.4727ZM81.7274 18.0575C81.9138 18.2513 82.1377 18.4055 82.3857 18.5109C82.6336 18.6163 82.9004 18.6706 83.1701 18.6706C83.4397 18.6706 83.7065 18.6163 83.9544 18.5109C84.2023 18.4055 84.4263 18.2513 84.6127 18.0575C85.0053 17.6218 85.2116 17.051 85.1876 16.4663C85.215 15.8811 85.0082 15.309 84.6127 14.8751C84.4263 14.6813 84.2023 14.5271 83.9544 14.4217C83.7065 14.3163 83.4397 14.262 83.1701 14.262C82.9004 14.262 82.6336 14.3163 82.3857 14.4217C82.1377 14.5271 81.9138 14.6813 81.7274 14.8751C81.3471 15.3167 81.1491 15.8853 81.1734 16.4663C81.1522 17.0469 81.3498 17.6144 81.7274 18.0575Z" fill="#1D2130"/>
<path d="M92.4319 20.543C91.4935 20.5814 90.563 20.3581 89.7453 19.8982C89.4173 19.7016 89.1379 19.4341 88.928 19.1154C88.7181 18.7968 88.5829 18.4351 88.5327 18.0574C88.5327 17.8494 88.6059 17.7454 88.8359 17.7454H90.3726C90.4457 17.7483 90.5166 17.7711 90.5774 17.8115C90.6383 17.8519 90.6868 17.9082 90.7175 17.9742C90.9371 18.5358 91.512 18.8166 92.4319 18.8166C92.7528 18.8312 93.0724 18.7669 93.3623 18.6294C93.4624 18.5845 93.5483 18.5133 93.6109 18.4236C93.6735 18.3338 93.7104 18.2288 93.7178 18.1198C93.7178 17.8494 93.5505 17.6622 93.216 17.5374C92.8192 17.406 92.409 17.3188 91.9929 17.2774C91.5 17.2219 91.0111 17.1351 90.5294 17.0174C90.0609 16.9119 89.6348 16.6692 89.3063 16.3206C89.1128 16.0837 88.9703 15.8097 88.8878 15.5156C88.8053 15.2216 88.7845 14.9138 88.8267 14.6114C88.8688 14.309 88.9731 14.0185 89.1329 13.7579C89.2927 13.4973 89.5048 13.2722 89.7558 13.0966C90.5093 12.6191 91.3933 12.3865 92.2856 12.431C93.1495 12.402 94.0042 12.6146 94.7527 13.0446C95.0543 13.2146 95.3141 13.4494 95.513 13.7318C95.7119 14.0143 95.845 14.3373 95.9026 14.6774C95.9026 14.8854 95.8085 14.9894 95.6203 14.9894H94.0732C94.008 14.9933 93.9432 14.9775 93.8873 14.944C93.8313 14.9106 93.7868 14.8612 93.7596 14.8022C93.6562 14.5559 93.4616 14.3586 93.216 14.251C92.9389 14.1068 92.6295 14.0352 92.3169 14.043C92.0105 14.0264 91.7048 14.0873 91.4284 14.2198C91.331 14.2572 91.2471 14.3228 91.1874 14.408C91.1278 14.4933 91.0952 14.5944 91.0939 14.6982C91.1005 14.8404 91.1529 14.9768 91.2432 15.0872C91.3335 15.1977 91.457 15.2764 91.5956 15.3118C91.9971 15.4623 92.4144 15.567 92.8396 15.6238C93.3285 15.6878 93.8136 15.7781 94.2927 15.8942C94.7612 15.9997 95.1872 16.2424 95.5158 16.591C95.6916 16.7831 95.8273 17.0079 95.9152 17.2524C96.0032 17.497 96.0415 17.7564 96.028 18.0158C96.037 18.3753 95.9522 18.731 95.7818 19.0482C95.6114 19.3653 95.3613 19.6331 95.0558 19.8254C94.2748 20.3243 93.3595 20.5746 92.4319 20.543Z" fill="#1D2130"/>
<path d="M107.078 20.023C107.084 20.06 107.082 20.0977 107.073 20.134C107.064 20.1703 107.048 20.2045 107.026 20.2346C107.003 20.2646 106.975 20.2899 106.943 20.3089C106.91 20.3279 106.874 20.3404 106.837 20.3454C106.456 20.4694 106.057 20.536 105.656 20.543C105.259 20.584 104.857 20.5222 104.491 20.3637C104.125 20.2052 103.806 19.9553 103.565 19.6382C102.827 20.2698 101.872 20.5939 100.9 20.543C100.448 20.5637 99.9971 20.4902 99.5758 20.3272C99.1545 20.1643 98.7722 19.9154 98.4534 19.5966C98.1367 19.2626 97.8911 18.8685 97.7312 18.4378C97.5714 18.0072 97.5005 17.5488 97.523 17.0902V13.0238C97.523 12.8262 97.6171 12.7222 97.8157 12.7222H99.5719C99.7705 12.7222 99.8646 12.8262 99.8646 13.0238V16.7782C99.8455 17.246 100.006 17.7034 100.314 18.0574C100.468 18.2196 100.655 18.3472 100.862 18.4315C101.069 18.5158 101.292 18.5549 101.516 18.5462C101.745 18.5562 101.974 18.5209 102.19 18.4424C102.405 18.3638 102.602 18.2436 102.771 18.0886C102.93 17.9253 103.054 17.7312 103.135 17.5184C103.216 17.3055 103.252 17.0784 103.241 16.851V13.0238C103.241 12.8262 103.335 12.7222 103.534 12.7222H105.311C105.51 12.7222 105.604 12.8262 105.604 13.0238V17.9222C105.604 18.3278 105.781 18.5254 106.126 18.5254C106.288 18.5317 106.45 18.5142 106.607 18.4734C106.647 18.4624 106.688 18.4604 106.729 18.4677C106.769 18.4749 106.807 18.4911 106.841 18.5151C106.874 18.5391 106.901 18.5703 106.92 18.6063C106.94 18.6423 106.951 18.6822 106.952 18.723L107.078 20.023Z" fill="#1D2130"/>
<path d="M123.689 20.0231C123.698 20.0603 123.699 20.0992 123.691 20.1368C123.684 20.1744 123.668 20.2099 123.645 20.2407C123.622 20.2716 123.592 20.2969 123.558 20.315C123.524 20.3331 123.487 20.3435 123.448 20.3455C123.06 20.4712 122.654 20.5378 122.246 20.5431C121.624 20.575 121.01 20.3993 120.5 20.0439C120.28 19.8916 120.101 19.6876 119.978 19.45C119.856 19.2123 119.795 18.9484 119.8 18.6815V16.2375C119.822 15.7711 119.665 15.3139 119.361 14.9583C119.214 14.7957 119.033 14.6676 118.83 14.5831C118.628 14.4985 118.409 14.4597 118.19 14.4695C117.992 14.4621 117.795 14.4994 117.614 14.5786C117.433 14.6579 117.273 14.7771 117.145 14.9271C116.869 15.2756 116.728 15.7111 116.747 16.1543V19.9919C116.747 20.1895 116.653 20.2935 116.455 20.2935H114.688C114.647 20.2985 114.605 20.2942 114.566 20.2809C114.527 20.2675 114.492 20.2454 114.462 20.2163C114.433 20.1873 114.411 20.1519 114.397 20.113C114.384 20.0741 114.38 20.0327 114.385 19.9919V16.2375C114.408 15.7762 114.263 15.3222 113.977 14.9583C113.85 14.8054 113.69 14.6824 113.509 14.5979C113.328 14.5134 113.131 14.4696 112.932 14.4695C112.718 14.4609 112.506 14.4973 112.308 14.5761C112.109 14.655 111.93 14.7746 111.782 14.9271C111.483 15.2645 111.329 15.7051 111.353 16.1543V19.9919C111.358 20.0327 111.354 20.0741 111.34 20.113C111.327 20.1519 111.305 20.1873 111.276 20.2163C111.246 20.2454 111.211 20.2675 111.172 20.2809C111.133 20.2942 111.091 20.2985 111.05 20.2935H109.346C109.147 20.2935 109.053 20.1895 109.053 19.9919V15.0935C109.066 15.0101 109.058 14.9249 109.032 14.8449C109.005 14.7649 108.96 14.6922 108.9 14.6325C108.84 14.5729 108.767 14.5281 108.686 14.5016C108.606 14.4751 108.52 14.4676 108.437 14.4799H108.092C107.862 14.4799 107.747 14.3967 107.747 14.2303V13.0031C107.741 12.9271 107.762 12.8517 107.806 12.7892C107.85 12.7267 107.914 12.6811 107.987 12.6599C108.349 12.5291 108.731 12.4657 109.116 12.4727C109.485 12.4414 109.856 12.5146 110.185 12.6839C110.515 12.8532 110.789 13.1117 110.977 13.4295C111.329 13.0969 111.747 12.8403 112.204 12.6757C112.661 12.5111 113.147 12.442 113.632 12.4727C114.103 12.4498 114.573 12.5377 115.003 12.7292C115.434 12.9208 115.813 13.2106 116.11 13.5751C116.456 13.201 116.881 12.9081 117.354 12.7174C117.828 12.5268 118.338 12.4432 118.848 12.4727C119.305 12.4514 119.761 12.5246 120.187 12.6875C120.613 12.8504 121.001 13.0995 121.326 13.4191C121.644 13.7524 121.89 14.1464 122.05 14.5773C122.21 15.0081 122.28 15.4668 122.256 15.9255V17.9327C122.256 18.3279 122.434 18.5255 122.769 18.5255C122.931 18.533 123.093 18.5155 123.25 18.4735C123.466 18.4735 123.581 18.5567 123.594 18.7231L123.689 20.0231Z" fill="#1D2130"/>
<path d="M1.10829 11.3703C1.87953 8.28636 3.66571 5.54777 6.18243 3.5906C8.69914 1.63342 11.8017 0.57019 14.9961 0.57019C18.1904 0.57019 21.293 1.63342 23.8097 3.5906C26.3264 5.54777 28.1126 8.28636 28.8838 11.3703H27.6294C25.5132 11.3393 23.4404 11.9685 21.7021 13.1695C21.6018 13.2418 21.4971 13.3078 21.3885 13.3671H21.2422C21.1336 13.3078 21.0289 13.2418 20.9285 13.1695C19.1748 11.9963 17.1094 11.3697 14.9961 11.3697C12.8827 11.3697 10.8173 11.9963 9.06357 13.1695C8.96325 13.2418 8.85851 13.3078 8.74996 13.3671H8.60361C8.49506 13.3078 8.39032 13.2418 8.29 13.1695C6.55168 11.9685 4.4789 11.3393 2.36274 11.3703H1.10829ZM25.3714 17.8911C26.0153 17.3922 26.8135 17.1312 27.6294 17.1527H29.3124V13.8143H27.6294C26.1922 13.797 24.7879 14.242 23.6256 15.0831C22.9715 15.5628 22.1802 15.8217 21.3676 15.8217C20.555 15.8217 19.7637 15.5628 19.1096 15.0831C17.9178 14.2577 16.5005 13.8153 15.0483 13.8153C13.5962 13.8153 12.1789 14.2577 10.9871 15.0831C10.333 15.5628 9.54168 15.8217 8.72905 15.8217C7.91642 15.8217 7.12514 15.5628 6.47105 15.0831C5.29438 14.2313 3.86995 13.7857 2.415 13.8143H0.679688V17.1527H2.36274C3.17866 17.1312 3.97678 17.3922 4.62074 17.8911C5.81038 18.717 7.22612 19.1599 8.67678 19.1599C10.1275 19.1599 11.5432 18.717 12.7328 17.8911C13.3776 17.3937 14.1752 17.1329 14.9908 17.1527C15.807 17.1294 16.6057 17.3906 17.2488 17.8911C18.4406 18.7165 19.858 19.1589 21.3101 19.1589C22.7622 19.1589 24.1796 18.7165 25.3714 17.8911ZM25.3714 23.8607C26.0153 23.3618 26.8135 23.1008 27.6294 23.1223H29.3124V19.7839H27.6294C26.1922 19.7666 24.7879 20.2116 23.6256 21.0527C22.9715 21.5325 22.1802 21.7913 21.3676 21.7913C20.555 21.7913 19.7637 21.5325 19.1096 21.0527C17.9178 20.2273 16.5005 19.7849 15.0483 19.7849C13.5962 19.7849 12.1789 20.2273 10.9871 21.0527C10.333 21.5325 9.54168 21.7913 8.72905 21.7913C7.91642 21.7913 7.12514 21.5325 6.47105 21.0527C5.29438 20.2009 3.86995 19.7553 2.415 19.7839H0.679688V23.1223H2.36274C3.17866 23.1008 3.97678 23.3618 4.62074 23.8607C5.81038 24.6866 7.22612 25.1295 8.67678 25.1295C10.1275 25.1295 11.5432 24.6866 12.7328 23.8607C13.3776 23.3633 14.1752 23.1025 14.9908 23.1223C15.807 23.099 16.6057 23.3602 17.2488 23.8607C18.4406 24.6861 19.858 25.1285 21.3101 25.1285C22.7622 25.1285 24.1796 24.6861 25.3714 23.8607Z" fill="#1D2130"/>
</g>
</svg>
